<svg id="flat" height="512" viewBox="0 0 512 512" width="512" xmlns="http://www.w3.org/2000/svg"><path d="m54.3584 63.1416a7.98082 7.98082 0 0 1 -2.75586-.49219l-30.36279-11.1455a7.99979 7.99979 0 1 1 5.51367-15.01953l30.36279 11.1455a8.00115 8.00115 0 0 1 -2.75781 15.51172z" fill="#6e8beb"/><path d="m84.95117 58.42871-15.17871-5.06055 10.63477-31.90429a8 8 0 0 1 10.11914-5.05957l72 24-5.05957 15.1797-64.41065-21.47072z" fill="#6e8beb"/><path d="m352 143.99-16 32-249.92-90.25-38.08-13.75 11.6-30.73 36.98 12.99z" fill="#5771e5"/><path d="m96.58 54.25-10.5 31.49-38.08-13.75 11.6-30.73z" fill="#89a8f5"/><path d="m231.99652 463.99457 32-8v-68.57157a32 32 0 0 0 -7.2335-20.26378l-64.76302-79.15379 1.60109-8.00543h-73.60457v96l-60.47609 53.75652 36.47609 18.238v.00548l57.7504-38.50027a32 32 0 0 0 14.2496-26.62561v-54.87412l56 72 8 64z" fill="#445496"/><path d="m296 155.95a9.75364 9.75364 0 0 1 -2.87 6.92017l-5.13 5.13983v67.40991a28.50443 28.50443 0 0 1 -28.51 28.51h-.07007a28.475 28.475 0 0 1 -7.78992-1.10986l-27.55-7.90015-24.08001-6.9099-6.4 31.99h-73.6v-64l-17.3-4.93994-23.03-6.58006a30.89418 30.89418 0 0 1 -21.49-37.21l13.82-55.27-9.46-9.46a12.48464 12.48464 0 0 1 13.07-20.57l29.43 10.6301-9.04 75.4099 19.05 6.01 123.04 38.85986 9.91 3.13014 8-64 28.29-5.65991a9.78956 9.78956 0 0 1 11.71 9.59991z" fill="#ffceb6"/><path d="m238.09 212.88-14.01 42.04-24.08-6.91-6.4 31.99h-73.6v-64l-17.3-4.94 12.35-37.04z" fill="#ed6445"/><path d="m176 224 8 48-16 16-16-16 8-48z" fill="#f7c04a"/><path d="m184 208-8 16h-16l-8-16 16-8z" fill="#f5a431"/><path d="m351.997 143.995 24 32h-40z" fill="#89a8f5"/><path d="m135.99693 223.99449a7.99984 7.99984 0 0 1 .00131-11.31382l26.34552-26.33789a8.0021 8.0021 0 0 1 11.313 0l26.33965 26.33765a7.99983 7.99983 0 0 1 .00046 11.31345l-.00042.00042a7.99983 7.99983 0 0 1 -11.31357.00041l-20.68335-20.6822-20.68945 20.68331a7.99983 7.99983 0 0 1 -11.31315-.00133z" fill="#de402f"/><path d="m471.99658 111.99414h-64a8.00008 8.00008 0 0 1 -8-8v-64a8.00008 8.00008 0 0 1 8-8h32v16h-24v48h48v-56h16v64a8.00008 8.00008 0 0 1 -8 8z" fill="#c4e9ff"/><path d="m444.273 84.46289a8.00021 8.00021 0 0 1 -5.7002-2.38672l-12.2769-12.46875a8.00042 8.00042 0 0 1 11.40137-11.22656l6.08252 6.17773 38.0708-45.68554a7.99993 7.99993 0 0 1 12.292 10.24218l-43.72316 52.46877a8.00046 8.00046 0 0 1 -5.81445 2.87207c-.11084.00487-.22168.00682-.33198.00682z" fill="#ed6445"/><path d="m471.99658 239.99414h-64a8.00008 8.00008 0 0 1 -8-8v-64a8.00008 8.00008 0 0 1 8-8h32v16h-24v48h48v-56h16v64a8.00008 8.00008 0 0 1 -8 8z" fill="#c4e9ff"/><path d="m444.273 212.46289a8.00021 8.00021 0 0 1 -5.7002-2.38672l-12.2769-12.46875a8.00042 8.00042 0 0 1 11.40137-11.22656l6.08252 6.17773 38.0708-45.68554a7.99993 7.99993 0 0 1 12.292 10.24218l-43.72316 52.46877a8.00046 8.00046 0 0 1 -5.81445 2.87207c-.11084.00487-.22168.00682-.33198.00682z" fill="#ed6445"/><path d="m471.99658 367.99414h-64a8.00008 8.00008 0 0 1 -8-8v-64a8.00008 8.00008 0 0 1 8-8h32v16h-24v48h48v-56h16v64a8.00008 8.00008 0 0 1 -8 8z" fill="#c4e9ff"/><path d="m444.273 340.46289a8.00021 8.00021 0 0 1 -5.7002-2.38672l-12.2769-12.46875a8.00042 8.00042 0 0 1 11.40137-11.22656l6.08252 6.17773 38.0708-45.68554a7.99993 7.99993 0 0 1 12.292 10.24218l-43.72316 52.46877a8.00046 8.00046 0 0 1 -5.81445 2.87207c-.11084.00487-.22168.00682-.33198.00682z" fill="#ed6445"/><g fill="#c4e9ff"><path d="m239.997 55.994h80v16h-80z"/><path d="m335.997 55.994h40v16h-40z"/><path d="m311.997 87.994h64v16h-64z"/><path d="m247.997 303.994h32v16h-32z"/><path d="m295.997 303.994h80v16h-80z"/><path d="m327.997 335.994h48v16h-48z"/><path d="m271.997 335.994h40v16h-40z"/><path d="m343.997 207.994h32v16h-32z"/><path d="m311.997 207.994h16v16h-16z"/></g><path d="m231.997 464v24h64v-8l-32-24z" fill="#6d7eb3"/><path d="m59.52 429.757-11.523 10.243 32 48h16v-40z" fill="#6d7eb3"/><path d="m192 168 7.80065-3.90032a14.8328 14.8328 0 0 0 8.19935-13.26686v-14.83282h-36.58361a19.41638 19.41638 0 0 0 -19.41639 19.41639 19.41651 19.41651 0 0 0 2.04984 8.68328l5.95016 11.90033h24z" fill="#b36f42"/><path d="m160 168 8-8a17.88853 17.88853 0 0 0 24 8v16a16 16 0 0 1 -16 16 16 16 0 0 1 -16-16z" fill="#ffceb6"/></svg>